<?xml version="1.0" ?><!DOCTYPE svg  PUBLIC '-//W3C//DTD SVG 1.1//EN'  'http://www.w3.org/Graphics/SVG/1.1/DTD/svg11.dtd'><svg enable-background="new 0 0 512 512" height="512px" id="Слой_1" version="1.1" viewBox="0 0 512 512" width="512px" xml:space="preserve" xmlns="http://www.w3.org/2000/svg" xmlns:xlink="http://www.w3.org/1999/xlink"><g id="Google_plus_2_"><polygon style="fill:#ffffff" points="444.116,80.052 444.116,12.368 410.18,12.368 410.18,80.052 342.293,80.052 342.293,113.926 410.18,113.926    410.18,181.611 444.116,181.611 444.116,113.926 511.987,113.926 511.987,80.052  "/><path style="fill:#ffffff" d="M257.751,290.482c-47.515-34.563-59.139-54.092-13.78-89.091c25.561-19.718,43.48-45.967,43.48-78.403   c0-35.342-14.483-67.404-41.747-82.966h38.639l32.873-34.405c0,0-123.945,0-147.133,0c-91.84,0-136.885,54.904-136.885,115.277   c0,61.717,42.468,110.309,125.369,110.309c-12.858,25.875-7.703,49.779,13.327,66.873c-141.587,0-171.882,61.967-171.882,109.684   c0,61.873,71.278,98.623,156.758,98.623c116.869,0,163.336-61.779,163.336-112.496C320.106,352.512,304.607,325.48,257.751,290.482   z M88.54,119.988c-6.859-51.937,19.732-91.686,59.388-90.528c39.639,1.188,73.559,43.811,80.401,95.715   c6.845,51.967-15.968,85.372-55.605,84.185C133.068,208.205,95.367,171.924,88.54,119.988z M157.192,478.881   c-59.075,0-101.745-37.279-101.745-82.09c0-43.904,50.061-81.779,109.136-81.123c65.543,0,104.635,40.688,104.635,83.404   C269.218,443.883,232.72,478.881,157.192,478.881z"/></g></svg>